<?xml version="1.0" encoding="utf-8"?>
<!-- Generator: Adobe Illustrator 23.0.2, SVG Export Plug-In . SVG Version: 6.00 Build 0)  -->
<svg version="1.1" id="Layer_1" xmlns="http://www.w3.org/2000/svg" xmlns:xlink="http://www.w3.org/1999/xlink" x="0px" y="0px"
	 viewBox="0 0 90.7 90.7" style="enable-background:new 0 0 90.7 90.7;" xml:space="preserve">
<style type="text/css">
	.st0{fill:#FFFFFF;}
	.st1{fill:#0388CB;}
	.st2{fill:#07070A;}
	.st3{fill:#F7F7F7;}
</style>
<g>
	<path class="st3" d="M45.4,0L45.4,0c25,0,45.4,20.3,45.4,45.4l0,0c0,25-20.3,45.4-45.4,45.4l0,0C20.3,90.7,0,70.4,0,45.4l0,0
		C0,20.3,20.3,0,45.4,0z"/>
	<path class="st0" d="M33.1,48.3L53.2,19h-2.2c-8.3,0.1-16.6,0-24.9,0c-0.5,0-1,0-1.6,0c-0.8,0-1.5,0.3-2.2,0.8
		c-1.1,0.8-1.7,2-1.8,3.3c0,0.4,0,0.8,0,1.2c0,9,0,18,0,27.1c0,3.4,0,6.7,0,10.1c0,1.9,1.2,3.5,2.9,4.1c0.8,0.3,1.6,0.4,2.4,0.3
		h15.8h0.7c0.6,0,0.5,0.1,0.8-0.6c0.2-0.6,0.3-1.1,0.5-1.7c0.9-2.6,1.8-5.2,2.7-7.8c0.7-2,1.4-4,2-6c0.2-0.5,0.4-1.1,0.5-1.6
		L33.1,48.3z"/>
	<path class="st0" d="M42.5,74l0.1,0.1c9.1-12,18.2-23.9,27.4-35.9c-0.2-0.1-0.4-0.1-0.6-0.1c-2,0.1-4-0.1-6,0c-2.3,0.1-4.5,0-6.9,0
		c-0.6,0-0.6,0-0.6-0.6c0-0.1,0-0.2,0-0.3c0-5.9,0-11.7,0-17.6c0-0.1,0.1-0.3-0.1-0.4c-0.6,0.5-18.4,26.5-18.5,27
		c0.2,0.1,0.3,0.1,0.5,0.1h3.9h9.2c0.8,0,1.1-0.2,0.7,0.9c-1.7,5-3.4,9.9-5.1,14.8c-1.1,3.1-2.1,6.3-3.2,9.5L42.5,74z"/>
	<path class="st2" d="M33.1,48.3h15.7c-0.1,0.6-0.3,1.1-0.5,1.6c-0.7,2-1.3,4-2,6c-0.9,2.6-1.8,5.2-2.7,7.8
		c-0.2,0.6-0.3,1.1-0.5,1.7C43,66,43,66,42.4,66h-0.7H25.9c-0.8,0-1.6-0.1-2.4-0.3c-1.7-0.6-2.9-2.3-2.9-4.1c0-3.4,0-6.7,0-10.1
		c0-9,0-18,0-27.1c0-0.4,0-0.8,0-1.2c0.1-1.3,0.7-2.6,1.8-3.3c0.6-0.5,1.4-0.7,2.2-0.8c0.5,0,1,0,1.6,0c8.3,0,16.6,0,24.9,0h2.1
		L33.1,48.3z"/>
	<path class="st1" d="M42.5,74l0.9-2.5c1.1-3.1,2.1-6.3,3.2-9.5c1.7-5,3.3-9.9,5-14.9c0.4-1.2,0.1-0.9-0.7-0.9h-9.2h-3.9
		c-0.2,0-0.3,0-0.5-0.1c0.1-0.5,18-26.5,18.5-27c0.1,0.1,0.1,0.3,0.1,0.4c0,5.9,0,11.7,0,17.6c0,0.1,0,0.2,0,0.3
		c0,0.6,0,0.6,0.6,0.6c2.3,0,4.6,0.1,6.9,0c2-0.1,4,0.1,6,0c0.2,0,0.4,0,0.6,0.1c-9.1,12-18.3,23.9-27.4,35.9L42.5,74z"/>
</g>
</svg>
