<?xml version="1.0" encoding="utf-8"?>
<!-- Generator: Adobe Illustrator 23.0.2, SVG Export Plug-In . SVG Version: 6.00 Build 0)  -->
<svg version="1.1" id="Layer_1" xmlns="http://www.w3.org/2000/svg" xmlns:xlink="http://www.w3.org/1999/xlink" x="0px" y="0px"
	 viewBox="0 0 298.7 118" style="enable-background:new 0 0 298.7 118;" xml:space="preserve">
<style type="text/css">
	.st0{fill:#FFFFFF;}
	.st1{fill:#0388CB;}
	.st2{fill:#07070A;}
	.st3{fill:#F7F7F7;}
</style>
<g>
	<path class="st0" d="M21.5,67l34.7-50.6c-1.4,0-2.5,0-3.7,0C38.3,16.5,24,16.4,9.7,16.4c-0.9,0-1.8,0-2.7,0.1
		c-1.4,0-2.7,0.5-3.8,1.3c-1.9,1.5-3.1,3.3-3.2,5.8c0,0.7,0,1.3,0,2c0,15.6,0,31.2,0,46.7C0,78.1,0,84,0,89.8C0,93,2,95.8,5,97
		c1.3,0.5,2.7,0.7,4.1,0.6l27.2,0h1.2c1,0,0.9,0.1,1.3-1c0.3-1,0.6-1.9,0.9-2.9c1.5-4.5,3.1-9,4.6-13.4c1.2-3.5,2.3-6.9,3.5-10.4
		c0.4-0.9,0.6-1.9,0.8-2.8L21.5,67z"/>
	<path class="st0" d="M37.8,111.3l0.3,0.2l47.3-61.9c-0.3-0.2-0.7-0.3-1-0.2c-3.5,0.1-6.9-0.1-10.4,0c-4,0.1-7.9,0-11.9-0.1
		c-1,0-1,0-1-1c0-0.2,0-0.4,0-0.6c0-10.1,0-20.2,0-30.4c0-0.2,0.1-0.5-0.1-0.7c-0.9,0.9-31.8,45.8-32,46.6c0.3,0.1,0.6,0.1,0.9,0.1
		c2.2,0,4.5,0,6.7,0h15.9c1.4,0,1.9-0.4,1.2,1.6c-2.9,8.5-5.8,17.1-8.7,25.7c-1.8,5.4-3.7,10.9-5.5,16.3
		C38.8,108.5,38.3,109.9,37.8,111.3z"/>
	<path class="st0" d="M21.5,67h27.2c-0.2,1-0.5,1.9-0.8,2.8c-1.2,3.5-2.3,6.9-3.5,10.4c-1.5,4.5-3.1,9-4.6,13.5
		c-0.3,1-0.6,1.9-0.9,2.9c-0.4,1.1-0.3,1-1.3,1h-1.2l-27.2,0c-1.4,0.1-2.8-0.1-4.1-0.6c-3-1.1-5-4-5-7.1C0,84,0,78.1,0,72.3
		c0-15.6,0-31.2,0-46.7c0-0.7,0-1.3,0-2c0.1-2.4,1.3-4.3,3.2-5.8C4.3,17,5.6,16.5,7,16.5c0.9-0.1,1.8-0.1,2.7-0.1
		c14.3,0,28.6,0.1,42.9-0.1c1.1,0,2.3,0,3.7,0L21.5,67z"/>
	<path class="st1" d="M37.8,111.3c0.5-1.4,1-2.9,1.5-4.3c1.8-5.4,3.7-10.9,5.5-16.3c2.9-8.6,5.8-17.1,8.7-25.7
		c0.7-2,0.2-1.6-1.2-1.6H36.4c-2.2,0-4.5,0-6.7,0c-0.3,0.1-0.6,0-0.9-0.1c0.3-0.8,31.1-45.7,32-46.6c0.3,0.2,0.1,0.5,0.1,0.7
		c0,10.1,0,20.2,0,30.4c0,0.2,0,0.4,0,0.6c0,1,0,1,1,1c4,0,7.9,0.2,11.9,0.1c3.5-0.1,6.9,0.1,10.4,0c0.4-0.1,0.7,0,1,0.2L38,111.5
		L37.8,111.3z"/>
	<path class="st0" d="M134.7,66.7c-0.7,1.9-1.4,3.7-1.9,5.1s-1,2.9-1.4,4.2c0,0.1-0.1,0.3-0.1,0.4c-0.2-0.8-0.5-1.5-0.8-2.3
		c-0.3-1-0.7-2.1-1.2-3.3c-0.4-1.2-1-2.6-1.6-4.1l-11.6-29.9h-10.6L126.4,89h8.8l21-52.3h-10.7L134.7,66.7z"/>
	<rect x="164" y="49.6" class="st0" width="9.2" height="39.3"/>
	<path class="st0" d="M172.8,32c-1-0.9-2.5-1.4-4.4-1.4c-1.8,0-3.2,0.5-4.3,1.5c-1.1,1-1.6,2.4-1.6,3.9c0,1.7,0.5,3,1.5,3.9
		c1,0.9,2.5,1.4,4.3,1.4c1.8,0,3.3-0.5,4.3-1.5c1-1,1.6-2.4,1.6-3.8C174.4,34.2,173.9,32.9,172.8,32z"/>
	<polygon class="st0" points="194.4,81.3 213.3,56.2 213.3,49.6 183.2,49.6 183.2,57.3 202.2,57.3 183.2,82.4 183.2,89 213.8,89 
		213.8,81.3 	"/>
	<polygon class="st1" points="233.9,66.6 254.7,66.6 254.7,57.9 233.9,57.9 233.9,45.5 258.5,45.5 258.5,36.7 224.3,36.7 224.3,89 
		258.8,89 258.8,80.2 233.9,80.2 	"/>
	<polygon class="st1" points="278.9,81.3 297.8,56.2 297.8,49.6 267.7,49.6 267.7,57.3 286.7,57.3 267.7,82.4 267.7,89 298.3,89 
		298.3,81.3 	"/>
</g>
</svg>
